<?xml version="1.0" encoding="UTF-8"?>
<svg width="1024mm" height="1024mm" version="1.1" viewBox="0 0 1024 1024" xml:space="preserve" xmlns="http://www.w3.org/2000/svg"><title>Ruby</title><g><g fill="#510032"><rect x="626.78" y="694.42" width="70.031" height="67.772" style="paint-order:markers fill stroke"/><rect x="327.11" y="694.42" width="70.031" height="67.772" style="paint-order:markers fill stroke"/><rect x="397.51" y="762.45" width="228.97" height="67.772" style="paint-order:markers fill stroke"/></g><rect x="329.34" y="126.21" width="365.32" height="67.772" fill="#211630" style="paint-order:markers fill stroke"/><rect x="194.21" y="196.45" width="132.15" height="67.772" fill="#20182f" style="paint-order:markers fill stroke"/><rect x="126.26" y="264.12" width="132.15" height="67.772" fill="#211630" style="paint-order:markers fill stroke"/><rect x="766.3" y="264.12" width="132.15" height="67.772" fill="#211630" style="paint-order:markers fill stroke"/><rect x="697.96" y="196.45" width="132.15" height="67.772" fill="#20182f" style="paint-order:markers fill stroke"/><rect x="329.71" y="196.45" width="67.772" height="67.772" fill="#870037" style="paint-order:markers fill stroke"/><rect x="628.27" y="196.45" width="67.772" height="67.772" fill="#870037" style="paint-order:markers fill stroke"/><rect x="697.1" y="264.12" width="67.772" height="67.772" fill="#ee003c" style="paint-order:markers fill stroke"/><rect x="262.15" y="264.12" width="67.772" height="67.772" fill="#ee003c" style="paint-order:markers fill stroke"/><g fill="#510032"><rect x="125.73" y="492.46" width="202.19" height="67.772" style="paint-order:markers fill stroke"/><rect x="698.48" y="492.46" width="202.19" height="67.772" style="paint-order:markers fill stroke"/><rect x="697.52" y="560.47" width="133.28" height="67.772" style="paint-order:markers fill stroke"/><rect x="192.98" y="560.47" width="133.28" height="67.772" style="paint-order:markers fill stroke"/><rect x="257.61" y="627.25" width="70.031" height="67.772" style="paint-order:markers fill stroke"/><rect x="328.26" y="627.25" width="70.031" height="67.772" style="paint-order:markers fill stroke"/><rect x="625.7" y="627.25" width="70.031" height="67.772" style="paint-order:markers fill stroke"/><rect x="696.17" y="627.25" width="70.031" height="67.772" style="paint-order:markers fill stroke"/></g><rect x="195.65" y="438.86" width="132.15" height="51.958" fill="#be013c" style="paint-order:markers fill stroke"/><rect x="698.73" y="438.86" width="132.15" height="51.958" fill="#be013c" style="paint-order:markers fill stroke"/><rect x="194.19" y="333.89" width="133.28" height="103.92" fill="#ff496b" style="paint-order:markers fill stroke"/><rect x="696.84" y="333.89" width="133.28" height="103.92" fill="#ff496b" style="paint-order:markers fill stroke"/><rect x="830.4" y="333.89" width="67.772" height="157" fill="#770036" style="paint-order:markers fill stroke"/><g fill="#211630"><rect x="901.3" y="333.89" width="67.772" height="222.52" style="paint-order:markers fill stroke"/><rect x="54.928" y="333.89" width="67.772" height="222.52" style="paint-order:markers fill stroke"/><rect x="124.84" y="559.91" width="67.772" height="68.901" style="paint-order:markers fill stroke"/><rect x="832" y="559.91" width="67.772" height="68.901" style="paint-order:markers fill stroke"/><rect x="764.97" y="628.38" width="67.772" height="65.513" style="paint-order:markers fill stroke"/><rect x="193.93" y="628.38" width="67.772" height="65.513" style="paint-order:markers fill stroke"/><rect x="258.58" y="695.54" width="67.772" height="65.513" style="paint-order:markers fill stroke"/><rect x="697.49" y="695.54" width="67.772" height="65.513" style="paint-order:markers fill stroke"/><rect x="628.1" y="763.58" width="67.772" height="65.513" style="paint-order:markers fill stroke"/><rect x="328.37" y="763.58" width="67.772" height="65.513" style="paint-order:markers fill stroke"/><rect x="397.35" y="830.02" width="229.29" height="67.772" style="paint-order:markers fill stroke"/></g><rect x="125.6" y="333.89" width="67.772" height="157" fill="#770036" style="paint-order:markers fill stroke"/><rect x="397.92" y="196.45" width="228.16" height="67.772" fill="#fe3f66" style="paint-order:markers fill stroke"/><rect x="328.45" y="264.12" width="367.1" height="105.05" fill="#fffef8" style="paint-order:markers fill stroke"/><rect x="329.86" y="561.09" width="367.1" height="64.383" fill="#960039" style="paint-order:markers fill stroke"/><rect transform="rotate(-45.641)" x="-216.81" y="672.1" width="258.89" height="258.89" fill="#8f0039" style="paint-order:markers fill stroke"/><rect x="557.33" y="694.42" width="70.031" height="67.772" fill="#ee0141" style="paint-order:markers fill stroke"/><rect x="397.82" y="694.42" width="70.031" height="67.772" fill="#ee0141" style="paint-order:markers fill stroke"/><rect x="328.45" y="372.73" width="367.1" height="187.5" fill="#f0013d" style="paint-order:markers fill stroke"/></g></svg>
